<?xml version="1.0" encoding="UTF-8"?>
<svg xmlns="http://www.w3.org/2000/svg" version="1.1" viewBox="0 0 551.3 141.9">
  <defs>
    <style>
      .cls-1 {
        fill: #231f20;
      }
    </style>
  </defs>
  <!-- Generator: Adobe Illustrator 28.7.1, SVG Export Plug-In . SVG Version: 1.2.0 Build 142)  -->
  <g>
    <g id="Layer_1">
      <g>
        <path class="cls-1" d="M.2,142.2L44.2.2h17l44,142h-26.4l-26.2-94.9-26.2,94.9H.2ZM24.7,119.8v-24.2h56.6v24.2H24.7Z"/>
        <path class="cls-1" d="M173.9,86.5L199.5.2h28.9v142h-22.9V37.5l1.3,6.2-23.9,77.9h-17.8l-23.9-76,1.5-8.2v104.7h-23.1V.2h29.1l25.4,86.3Z"/>
        <path class="cls-1" d="M252.8,142.2V.2h25.4v142h-25.4ZM263.6,142.2v-24.5h67.2v24.5h-67.2Z"/>
        <path class="cls-1" d="M365,142.2L328.4.2h26.6l21.9,96.4L398.7.2h26.6l-36.6,142h-23.6Z"/>
        <path class="cls-1" d="M435.7,25.5V.2h25.5v25.3h-25.5ZM435.7,142.2V40.8h25.5v101.4h-25.5Z"/>
        <path class="cls-1" d="M513.5,143.6c-10.2,0-18.8-2.1-25.7-6.4s-11.4-10.4-13.5-18.2l20.5-10.6c2,3.8,4.8,6.8,8.3,8.9,3.5,2.1,7.5,3.1,11.9,3.1s7.2-.7,9.5-2.2c2.3-1.5,3.5-3.5,3.5-6.2s-1-4.9-3-6.2c-2-1.4-4.7-2.4-7.9-3.1-3.3-.7-6.7-1.5-10.4-2.3-3.5-1-6.9-2.1-10.3-3.2s-6.5-2.8-9.3-4.8c-2.8-2-5.1-4.8-6.8-8.3-1.7-3.5-2.6-8-2.6-13.6,0-9.6,3.2-17.2,9.5-22.8s15.1-8.3,26.1-8.3,17.2,2,23.5,6.1c6.3,4,10.6,9.8,12.9,17.4l-20.5,10.3c-1.7-3.4-3.9-6-6.7-7.8-2.8-1.8-6-2.7-9.6-2.7s-6.6.7-8.8,2.1-3.2,3.3-3.2,5.8.9,4.2,2.6,5.4,4.1,2.3,7,3c2.9.7,6,1.4,9.4,2.1,3.6.8,7.2,1.7,10.9,2.7,3.7,1,7.1,2.5,10.2,4.6,3.1,2.1,5.5,4.9,7.4,8.7,1.8,3.7,2.7,8.7,2.7,14.9,0,9.9-3.3,17.7-10,23.4-6.7,5.7-15.9,8.6-27.6,8.6Z"/>
      </g>
    </g>
  </g>
</svg>